<svg>
  <svg xmlns="http://www.w3.org/2000/svg" viewBox="0 0 24 24" id="icon-github">
    <title>github</title>
    <path d="M12 2C6.475 2 2 6.475 2 12a9.994 9.994 0 006.838 9.488c.5.087.687-.213.687-.476 0-.237-.013-1.024-.013-1.862-2.512.463-3.162-.612-3.362-1.175-.113-.288-.6-1.175-1.025-1.413-.35-.187-.85-.65-.013-.662.788-.013 1.35.725 1.538 1.025.9 1.512 2.338 1.087 2.912.825.088-.65.35-1.087.638-1.337-2.225-.25-4.55-1.113-4.55-4.938 0-1.088.387-1.987 1.025-2.688-.1-.25-.45-1.275.1-2.65 0 0 .837-.262 2.75 1.026a9.28 9.28 0 012.5-.338c.85 0 1.7.112 2.5.337 1.912-1.3 2.75-1.024 2.75-1.024.55 1.375.2 2.4.1 2.65.637.7 1.025 1.587 1.025 2.687 0 3.838-2.337 4.688-4.562 4.938.362.312.675.912.675 1.85 0 1.337-.013 2.412-.013 2.75 0 .262.188.574.688.474A10.016 10.016 0 0022 12c0-5.525-4.475-10-10-10z"></path>
  </svg>
  <svg xmlns="http://www.w3.org/2000/svg" viewBox="0 0 24 24" id="icon-post">
    <title>post</title>
    <path d="M19 22H5a3 3 0 01-3-3V3a1 1 0 011-1h14a1 1 0 011 1v12h4v4a3 3 0 01-3 3zm-1-5v2a1 1 0 002 0v-2h-2zm-2 3V4H4v15a1 1 0 001 1h11zM6 7h8v2H6V7zm0 4h8v2H6v-2zm0 4h5v2H6v-2z"></path>
  </svg>
  <svg xmlns="http://www.w3.org/2000/svg" viewBox="0 0 24 24" id="icon-favorite">
    <title>favorite</title>
    <path d="M21.179 12.794l.013.014L12 22l-9.192-9.192.013-.014A6.5 6.5 0 0112 3.64a6.5 6.5 0 019.179 9.154zM4.575 5.383a4.5 4.5 0 000 6.364L12 19.172l7.425-7.425a4.5 4.5 0 10-6.364-6.364L8.818 9.626 7.404 8.21l3.162-3.162a4.5 4.5 0 00-5.99.334l-.001.001z"></path>
  </svg>
  <svg xmlns="http://www.w3.org/2000/svg" viewBox="0 0 24 24" id="icon-favorite-filled">
    <title>favorite filled</title>
    <path d="M2.821 12.794a6.5 6.5 0 017.413-10.24h-.002L5.99 6.798l1.414 1.414 4.242-4.242a6.5 6.5 0 019.193 9.192L12 22l-9.192-9.192.013-.014z"></path>
  </svg>
  <svg xmlns="http://www.w3.org/2000/svg" viewBox="0 0 24 24" id="icon-bookmark">
    <title>bookmark</title>
    <path d="M5 2h14a1 1 0 011 1v19.143a.5.5 0 01-.766.424L12 18.03l-7.234 4.536A.5.5 0 014 22.143V3a1 1 0 011-1zm13 2H6v15.432l6-3.761 6 3.761V4z"></path>
  </svg>
  <svg xmlns="http://www.w3.org/2000/svg" viewBox="0 0 24 24" id="icon-bookmark-filled">
    <title>bookmark filled</title>
    <path d="M5 2h14a1 1 0 011 1v19.143a.5.5 0 01-.766.424L12 18.03l-7.234 4.536A.5.5 0 014 22.143V3a1 1 0 011-1z"></path>
  </svg>
  <svg xmlns="http://www.w3.org/2000/svg" viewBox="0 0 24 24" id="icon-comment">
    <title>comment</title>
    <path d="M10 3h4a8 8 0 010 16v3.5c-5-2-12-5-12-11.5a8 8 0 018-8zm2 14h2a6 6 0 000-12h-4a6 6 0 00-6 6c0 3.61 2.462 5.966 8 8.48V17z"></path>
  </svg>
  <svg xmlns="http://www.w3.org/2000/svg" viewBox="0 0 24 24" id="icon-hashtag">
    <title>hashtag</title>
    <path d="M7.784 14l.42-4H4V8h4.415l.525-5h2.011l-.525 5h3.989l.525-5h2.011l-.525 5H20v2h-3.784l-.42 4H20v2h-4.415l-.525 5h-2.011l.525-5H9.585l-.525 5H7.049l.525-5H4v-2h3.784zm2.011 0h3.99l.42-4h-3.99l-.42 4z"></path>
  </svg>
  <svg xmlns="http://www.w3.org/2000/svg" viewBox="0 0 24 24" id="icon-hamburger">
    <title>hamburger</title>
    <path d="M3 4h18v2H3V4zm0 7h18v2H3v-2zm0 7h18v2H3v-2z"></path>
  </svg>
  <svg xmlns="http://www.w3.org/2000/svg" viewBox="0 0 24 24" id="icon-cross">
    <title>cross</title>
    <path d="M12 10.586l4.95-4.95 1.414 1.414-4.95 4.95 4.95 4.95-1.414 1.414-4.95-4.95-4.95 4.95-1.414-1.414 4.95-4.95-4.95-4.95L7.05 5.636l4.95 4.95z"></path>
  </svg>
  <svg xmlns="http://www.w3.org/2000/svg" viewBox="0 0 24 24" id="icon-user">
    <title>user</title>
    <path d="M16 14h-8c-2.8 0-5 2.2-5 5v2c0 0.6 0.4 1 1 1s1-0.4 1-1v-2c0-1.7 1.3-3 3-3h8c1.7 0 3 1.3 3 3v2c0 0.6 0.4 1 1 1s1-0.4 1-1v-2c0-2.8-2.2-5-5-5z"></path>
    <path d="M12 12c2.8 0 5-2.2 5-5s-2.2-5-5-5-5 2.2-5 5 2.2 5 5 5zM12 4c1.7 0 3 1.3 3 3s-1.3 3-3 3-3-1.3-3-3 1.3-3 3-3z"></path>
  </svg>
  <svg xmlns="http://www.w3.org/2000/svg" viewBox="0 0 24 24" id="icon-cake">
    <title>cake</title>
    <path d="M8 6v3.999h3V6h2v3.999h3V6h2v3.999L19 10a3 3 0 012.995 2.824L22 13v1c0 1.014-.377 1.94-.999 2.645L21 21a1 1 0 01-1 1H4a1 1 0 01-1-1v-4.36a4.025 4.025 0 01-.972-2.182l-.022-.253L2 14v-1a3 3 0 012.824-2.995L5 10l1-.001V6h2zm11 6H5a1 1 0 00-.993.883L4 13v.971l.003.147a2 2 0 003.303 1.4c.363-.312.602-.744.674-1.218l.015-.153.005-.176c.036-1.248 1.827-1.293 1.989-.134l.01.134.004.147a2 2 0 003.992.031l.012-.282c.124-1.156 1.862-1.156 1.986 0l.012.282a2 2 0 003.99 0L20 14v-1a1 1 0 00-.883-.993L19 12zM7 1c1.32.871 1.663 2.088 1.449 2.888a1.5 1.5 0 11-2.898-.776C5.85 2.002 7 2.5 7 1zm5 0c1.32.871 1.663 2.088 1.449 2.888a1.5 1.5 0 01-2.898-.776C10.85 2.002 12 2.5 12 1zm5 0c1.32.871 1.663 2.088 1.449 2.888a1.5 1.5 0 01-2.898-.776C15.85 2.002 17 2.5 17 1z"></path>
  </svg>
  <svg xmlns="http://www.w3.org/2000/svg" viewBox="0 0 24 24" id="icon-edit">
    <title>edit</title>
    <path d="M20 13.7c-0.6 0-1 0.4-1 1v5.3c0 0.6-0.4 1-1 1h-14c-0.6 0-1-0.4-1-1v-14c0-0.6 0.4-1 1-1h5.3c0.6 0 1-0.4 1-1s-0.4-1-1-1h-5.3c-1.7 0-3 1.3-3 3v14c0 1.7 1.3 3 3 3h14c1.7 0 3-1.3 3-3v-5.3c0-0.6-0.4-1-1-1z"></path>
    <path d="M22.7 5.3l-4-4c-0.4-0.4-1-0.4-1.4 0l-10 10c-0.2 0.2-0.3 0.4-0.3 0.7v4c0 0.6 0.4 1 1 1h4c0.3 0 0.5-0.1 0.7-0.3l10-10c0.4-0.4 0.4-1 0-1.4zM11.6 15h-2.6v-2.6l9-9 2.6 2.6-9 9z"></path>
  </svg>
  <svg xmlns="http://www.w3.org/2000/svg" viewBox="0 0 24 24" id="icon-edit-2">
    <title>edit-2</title>
    <path d="M3 18h4c0.3 0 0.5-0.1 0.7-0.3l11-11c0.4-0.4 0.4-1 0-1.4l-4-4c-0.4-0.4-1-0.4-1.4 0l-11 11c-0.2 0.2-0.3 0.4-0.3 0.7v4c0 0.6 0.4 1 1 1zM4 13.4l10-10 2.6 2.6-10 10h-2.6v-2.6z"></path>
    <path d="M21 21h-18c-0.6 0-1 0.4-1 1s0.4 1 1 1h18c0.6 0 1-0.4 1-1s-0.4-1-1-1z"></path>
  </svg>
  <svg xmlns="http://www.w3.org/2000/svg" viewBox="0 0 24 24" id="icon-info">
    <title>info</title>
    <path d="M12 1c-6.1 0-11 4.9-11 11s4.9 11 11 11 11-4.9 11-11-4.9-11-11-11zM12 21c-5 0-9-4-9-9s4-9 9-9c5 0 9 4 9 9s-4 9-9 9z"></path>
    <path d="M12 11c-0.6 0-1 0.4-1 1v4c0 0.6 0.4 1 1 1s1-0.4 1-1v-4c0-0.6-0.4-1-1-1z"></path>
    <path d="M11.3 7.3c-0.2 0.2-0.3 0.4-0.3 0.7s0.1 0.5 0.3 0.7c0.2 0.2 0.4 0.3 0.7 0.3s0.5-0.1 0.7-0.3c0.2-0.2 0.3-0.4 0.3-0.7s-0.1-0.5-0.3-0.7c-0.4-0.4-1-0.4-1.4 0z"></path>
  </svg>
  <svg xmlns="http://www.w3.org/2000/svg" viewBox="0 0 24 24" id="icon-lock">
    <title>lock</title>
    <path d="M19 10h-1v-3c0-3.3-2.7-6-6-6s-6 2.7-6 6v3h-1c-1.7 0-3 1.3-3 3v7c0 1.7 1.3 3 3 3h14c1.7 0 3-1.3 3-3v-7c0-1.7-1.3-3-3-3zM8 7c0-2.2 1.8-4 4-4s4 1.8 4 4v3h-8v-3zM20 20c0 0.6-0.4 1-1 1h-14c-0.6 0-1-0.4-1-1v-7c0-0.6 0.4-1 1-1h14c0.6 0 1 0.4 1 1v7z"></path>
  </svg>
  <svg xmlns="http://www.w3.org/2000/svg" viewBox="0 0 24 24" id="icon-trash">
    <title>trash</title>
    <path d="M21 5h-4v-1c0-1.7-1.3-3-3-3h-4c-1.7 0-3 1.3-3 3v1h-4c-0.6 0-1 0.4-1 1s0.4 1 1 1h1v13c0 1.7 1.3 3 3 3h10c1.7 0 3-1.3 3-3v-13h1c0.6 0 1-0.4 1-1s-0.4-1-1-1zM9 4c0-0.6 0.4-1 1-1h4c0.6 0 1 0.4 1 1v1h-6v-1zM18 20c0 0.6-0.4 1-1 1h-10c-0.6 0-1-0.4-1-1v-13h12v13z"></path>
  </svg>
  <svg xmlns="http://www.w3.org/2000/svg" viewBox="0 0 24 24" id="icon-author">
    <title>author</title>
    <path d="M12 8.25a6 6 0 110 12 6 6 0 010-12zm0 2.625l-.992 2.01-2.218.322 1.605 1.564-.379 2.21L12 15.937l1.984 1.043-.379-2.209 1.605-1.564-2.218-.323L12 10.875zm.75-6.376l3.75.001v2.25l-1.022.854a7.45 7.45 0 00-2.728-.817V4.5zm-1.5 0v2.288a7.451 7.451 0 00-2.727.816L7.5 6.75V4.5h3.75z"></path>
  </svg>
</svg>